<svg xmlns="http://www.w3.org/2000/svg"  viewBox="0 0 40 40" width="40px" height="40px"><path fill="none" stroke="#4788c7" stroke-miterlimit="10" d="M10.357 11.224c0 0-6.786-.824-6.786-7.51M29.5 11.224c0 0 6.786-.824 6.786-7.51"/><path fill="#dff0fe" d="M17.98,28.462c-5.108,0-8.693-0.664-9.592-1.776L8.239,26.5H8c-1.828,0-3.147-3.104-3.477-4.837 C5.231,20.553,7.505,19.5,8,19.5h0.105l0.096-0.042c2.808-1.236,7.503-2.004,12.253-2.004c4.673,0,8.695,0.709,11.326,1.995 l0.104,0.051H32c0.495,0,2.769,1.053,3.477,2.163C35.147,23.396,33.828,26.5,32,26.5h-0.173l-0.136,0.106 C30.598,27.465,24.37,28.462,17.98,28.462z"/><path fill="#4788c7" d="M20.455,16.954v1c4.531,0,8.578,0.709,11.105,1.944l0.184,0.101h0.231 c0.45,0.046,2.282,0.919,2.968,1.778C34.547,23.616,33.305,26,32,26h-0.345l-0.272,0.213c-0.888,0.696-6.687,1.749-13.403,1.749 c-5.845,0-8.61-0.857-9.202-1.59L8.478,26H8c-1.305,0-2.547-2.384-2.944-4.223C5.742,20.919,7.572,20.045,8,20h0.21l0.193-0.085 c2.748-1.209,7.366-1.961,12.051-1.961L20.455,16.954 M20.454,16.954C15.701,16.954,10.931,17.71,8,19 c-0.688,0-3.312,1.236-4,2.571C4.295,23.42,5.74,27,8,27c1.15,1.425,5.373,1.962,9.98,1.962c6.015,0,12.685-0.915,14.02-1.962 c2.26,0,3.705-3.58,4-5.429C35.312,20.236,32.688,19,32,19C29.097,17.58,24.783,16.954,20.454,16.954L20.454,16.954z"/><path fill="#b6dcfe" d="M20,38.5c-4.844,0-10.355-6.527-11.5-11.895v-7.148C8.5,10.36,13.444,3.5,20,3.5 s11.5,6.86,11.5,15.957v7.148C30.355,31.973,24.844,38.5,20,38.5z"/><path fill="#4788c7" d="M20,4c6.271,0,11,6.645,11,15.457v7.095C29.786,32.134,24.162,38,20,38s-9.786-5.866-11-11.448 v-7.095C9,10.645,13.729,4,20,4 M20,3C13.3,3,8,9.994,8,19.457v7.2C9.2,32.417,15,39,20,39s10.8-6.583,12-12.343v-7.2 C32,9.994,26.7,3,20,3L20,3z"/><path fill="#dff0fe" d="M36.5 1.5A2 2 0 1 0 36.5 5.5A2 2 0 1 0 36.5 1.5Z"/><path fill="#4788c7" d="M36.5,2C37.327,2,38,2.673,38,3.5S37.327,5,36.5,5S35,4.327,35,3.5S35.673,2,36.5,2 M36.5,1 C35.119,1,34,2.119,34,3.5S35.119,6,36.5,6S39,4.881,39,3.5S37.881,1,36.5,1L36.5,1z"/><path fill="#fff" d="M24.5 18A2.5 4 0 1 0 24.5 26A2.5 4 0 1 0 24.5 18Z"/><path fill="#4788c7" d="M24.5 22.5A1 1 0 1 0 24.5 24.5A1 1 0 1 0 24.5 22.5Z"/><path fill="#4788c7" d="M24.5,23c0.276,0,0.5,0.224,0.5,0.5S24.776,24,24.5,24S24,23.776,24,23.5S24.224,23,24.5,23 M24.5,22c-0.828,0-1.5,0.672-1.5,1.5s0.672,1.5,1.5,1.5s1.5-0.672,1.5-1.5S25.328,22,24.5,22L24.5,22z"/><path fill="#fff" d="M15.5 18A2.5 4 0 1 0 15.5 26A2.5 4 0 1 0 15.5 18Z"/><g><path fill="#4788c7" d="M15.5 22.5A1 1 0 1 0 15.5 24.5A1 1 0 1 0 15.5 22.5Z"/><path fill="#4788c7" d="M15.5,23c0.276,0,0.5,0.224,0.5,0.5S15.776,24,15.5,24S15,23.776,15,23.5S15.224,23,15.5,23 M15.5,22c-0.828,0-1.5,0.672-1.5,1.5s0.672,1.5,1.5,1.5s1.5-0.672,1.5-1.5S16.328,22,15.5,22L15.5,22z"/></g><g><path fill="#4788c7" d="M15.165,31.5c0.912-0.828,2.6-2,4.835-2c2.246,0,3.931,1.172,4.84,2H15.165z"/><path fill="#4788c7" d="M20,30c1.348,0,2.485,0.464,3.349,1H20h-3.363C17.499,30.464,18.638,30,20,30 M20,29 c-3.744,0-6,3-6,3s3.005,0,6,0s6,0,6,0S23.744,29,20,29L20,29z"/></g><g><path fill="#dff0fe" d="M3.5 1.5A2 2 0 1 0 3.5 5.5A2 2 0 1 0 3.5 1.5Z"/><path fill="#4788c7" d="M3.5,2C4.327,2,5,2.673,5,3.5S4.327,5,3.5,5S2,4.327,2,3.5S2.673,2,3.5,2 M3.5,1 C2.119,1,1,2.119,1,3.5S2.119,6,3.5,6S6,4.881,6,3.5S4.881,1,3.5,1L3.5,1z"/></g></svg>